<svg width="19" height="19" viewBox="0 0 19 19" fill="none" xmlns="http://www.w3.org/2000/svg">
<path d="M9.5 14C7 14 5 12 5 9.5C5 7 7 5 9.5 5C12 5 14 7 14 9.5C14 12 12 14 9.5 14ZM9.5 6C7.55 6 6 7.55 6 9.5C6 11.45 7.55 13 9.5 13C11.45 13 13 11.45 13 9.5C13 7.55 11.45 6 9.5 6Z" fill="#9C9EA0"/>
<path d="M10.85 19H8.15L7.4 16.7C6.9 16.55 6.4 16.35 5.95 16.1L3.75 17.2L1.85 15.3L2.95 13.1C2.7 12.65 2.5 12.15 2.35 11.65L0 10.85V8.15L2.3 7.4C2.45 6.9 2.65 6.4 2.9 5.95L1.8 3.75L3.7 1.85L5.9 2.95C6.35 2.7 6.85 2.5 7.35 2.35L8.15 0H10.85L11.6 2.3C12.1 2.45 12.6 2.65 13.05 2.9L15.25 1.8L17.15 3.7L16.05 5.9C16.3 6.35 16.5 6.85 16.65 7.35L18.95 8.1V10.8L16.65 11.55C16.5 12.05 16.3 12.55 16.05 13L17.15 15.2L15.25 17.1L13.05 16C12.6 16.25 12.1 16.45 11.6 16.6L10.85 19ZM8.85 18H10.15L10.85 15.85L11.1 15.8C11.7 15.65 12.25 15.4 12.8 15.1L13.05 14.95L15.05 15.95L15.95 15.05L14.95 13.05L15.1 12.8C15.4 12.3 15.65 11.7 15.8 11.1L15.85 10.85L18 10.15V8.85L15.85 8.15L15.8 7.9C15.65 7.3 15.4 6.75 15.1 6.2L14.95 5.95L15.95 3.95L15.05 3.05L13.05 4.05L12.8 3.9C12.25 3.6 11.7 3.35 11.1 3.2L10.85 3.15L10.15 1H8.85L8.15 3.15L7.9 3.2C7.3 3.35 6.75 3.6 6.2 3.9L5.95 4.05L3.95 3.05L3.05 3.95L4.05 5.95L3.9 6.2C3.6 6.7 3.35 7.3 3.2 7.9L3.15 8.15L1 8.85V10.15L3.15 10.85L3.2 11.1C3.35 11.7 3.6 12.25 3.9 12.8L4.05 13.05L3.05 15.05L3.95 15.95L5.95 14.95L6.2 15.1C6.75 15.4 7.3 15.65 7.9 15.8L8.15 15.85L8.85 18Z" fill="#9C9EA0"/>
</svg>
